# xmcd
#
# Track frame offsets:
# 150
# 21107
# 47109
# 61696
# 100009
# 119697
# 148714
# 174982
# 189670
# 197857
# 221559
# 244093
# 272628
# 290541
# 314458
#
# Disc length: 4678 seconds
#
#
# Revision: 0
# Processed by: cddbd v1.5.2PL0 Copyright (c) Steve Scherf et al.
# Submitted via: FreeRIP 2.96 
#
DISCID=e212440f
DTITLE=Kenny Wayne Shepherd - 10 Days Out (Blues From The Backroads)
DYEAR=2007
DGENRE=Blues
TTITLE0=Prison Blues
TTITLE1=Potato Patch
TTITLE2=Honky Tonk
TTITLE3=The Thrill Is Gone
TTITLE4=Tina Marie
TTITLE5=Born In Louisiana
TTITLE6=Chaple Hill Boogie
TTITLE7=Tears Come Rollin' Down
TTITLE8=Knoxville Rag
TTITLE9=Big Daddy Boogie
TTITLE10=U-Haul
TTITLE11=Red Rooster
TTITLE12=Sittin' On Top Of The World
TTITLE13=Spoonful
TTITLE14=Grindin' Man
EXTD=
EXTT0=
EXTT1=
EXTT2=
EXTT3=
EXTT4=
EXTT5=
EXTT6=
EXTT7=
EXTT8=
EXTT9=
EXTT10=
EXTT11=
EXTT12=
EXTT13=
EXTT14=
PLAYORDER=
